<?xml version="1.0" encoding="iso-8859-1"?>
<!-- Generator: Adobe Illustrator 19.1.1, SVG Export Plug-In . SVG Version: 6.00 Build 0)  -->
<svg version="1.1" id="Layer_1" xmlns="http://www.w3.org/2000/svg" xmlns:xlink="http://www.w3.org/1999/xlink" x="0px" y="0px"
	 viewBox="0 0 40 40" style="enable-background:new 0 0 40 40;" xml:space="preserve">
<g>
	<g>
		<path style="fill:#E1EBF2;" d="M8,27.492c-4.136,0-7.5-3.364-7.5-7.5c0-3.434,2.328-6.42,5.661-7.263l0.406-0.103l-0.03-0.418
			C6.516,11.926,6.5,11.711,6.5,11.492c0-5.514,4.486-10,10-10c4.683,0,8.687,3.188,9.736,7.752l0.111,0.481L26.83,9.62
			c0.39-0.085,0.783-0.128,1.17-0.128c2.723,0,5.005,1.953,5.426,4.645l0.058,0.37l0.371,0.049c3.218,0.424,5.645,3.191,5.645,6.437
			c0,3.584-2.916,6.5-6.5,6.5H8z"/>
	</g>
	<g>
		<path style="fill:#B0C1D4;" d="M16.5,1.992c4.448,0,8.251,3.028,9.249,7.363l0.221,0.962l0.965-0.209
			C27.292,10.032,27.65,9.992,28,9.992c2.475,0,4.549,1.776,4.932,4.222l0.116,0.739l0.742,0.098c2.97,0.391,5.21,2.945,5.21,5.941
			c0,3.308-2.692,6-6,6H8c-3.86,0-7-3.14-7-7C1,16.787,3.172,14,6.283,13.214l0.812-0.205l-0.059-0.835L7.03,12.092
			C7.015,11.893,7,11.695,7,11.492C7,6.254,11.262,1.992,16.5,1.992 M16.5,0.992c-5.799,0-10.5,4.701-10.5,10.5
			c0,0.254,0.02,0.503,0.038,0.752C2.57,13.121,0,16.252,0,19.992c0,4.418,3.582,8,8,8h25c3.866,0,7-3.134,7-7
			c0-3.553-2.65-6.481-6.08-6.933c-0.449-2.87-2.925-5.067-5.92-5.067c-0.438,0-0.865,0.05-1.276,0.139
			C25.651,4.471,21.486,0.992,16.5,0.992L16.5,0.992z"/>
	</g>
</g>
<path style="fill:none;stroke:#4E7AB5;stroke-miterlimit:10;" d="M20.5,24c0-1.933,1.567-3.5,3.5-3.5s3.5,1.567,3.5,3.5
	s-1.567,3.5-3.5,3.5H9"/>
<path style="fill:none;stroke:#4E7AB5;stroke-miterlimit:10;" d="M7,30.5h23c1.381,0,2.5,1.119,2.5,2.5c0,1.381-1.119,2.5-2.5,2.5
	s-2.5-1.119-2.5-2.5"/>
<path style="fill:none;stroke:#4E7AB5;stroke-miterlimit:10;" d="M17.5,35.5c0,1.105,0.895,2,2,2s2-0.895,2-2s-0.895-2-2-2H5"/>
</svg>
